<svg xmlns="http://www.w3.org/2000/svg" viewBox="0 0 64 64">
  <defs>
    <linearGradient id="g1" x1="0%" y1="0%" x2="100%" y2="100%">
      <stop offset="0%" style="stop-color:#f59e0b"/>
      <stop offset="100%" style="stop-color:#ef4444"/>
    </linearGradient>
  </defs>
  <rect width="64" height="64" rx="14" fill="url(#g1)"/>
  <!-- Sun -->
  <circle cx="32" cy="24" r="9" fill="white" opacity="0.95"/>
  <!-- Rays -->
  <line x1="32" y1="8" x2="32" y2="12" stroke="white" stroke-width="2.5" stroke-linecap="round" opacity="0.9"/>
  <line x1="32" y1="36" x2="32" y2="40" stroke="white" stroke-width="2.5" stroke-linecap="round" opacity="0.9"/>
  <line x1="16" y1="24" x2="20" y2="24" stroke="white" stroke-width="2.5" stroke-linecap="round" opacity="0.9"/>
  <line x1="44" y1="24" x2="48" y2="24" stroke="white" stroke-width="2.5" stroke-linecap="round" opacity="0.9"/>
  <line x1="20.7" y1="12.7" x2="23.5" y2="15.5" stroke="white" stroke-width="2.5" stroke-linecap="round" opacity="0.9"/>
  <line x1="40.5" y1="32.5" x2="43.3" y2="35.3" stroke="white" stroke-width="2.5" stroke-linecap="round" opacity="0.9"/>
  <line x1="43.3" y1="12.7" x2="40.5" y2="15.5" stroke="white" stroke-width="2.5" stroke-linecap="round" opacity="0.9"/>
  <line x1="23.5" y1="32.5" x2="20.7" y2="35.3" stroke="white" stroke-width="2.5" stroke-linecap="round" opacity="0.9"/>
  <!-- Solar panel base -->
  <rect x="10" y="44" width="44" height="12" rx="4" fill="white" opacity="0.25"/>
  <rect x="12" y="46" width="40" height="8" rx="3" fill="white" opacity="0.15"/>
  <!-- Panel grid lines -->
  <line x1="25" y1="46" x2="25" y2="54" stroke="white" stroke-width="1" opacity="0.5"/>
  <line x1="39" y1="46" x2="39" y2="54" stroke="white" stroke-width="1" opacity="0.5"/>
  <line x1="12" y1="50" x2="52" y2="50" stroke="white" stroke-width="1" opacity="0.5"/>
</svg>